<mxfile host="app.diagrams.net" modified="2021-01-04T07:19:22.591Z" agent="5.0 (Macintosh; Intel Mac OS X 10_15_7) AppleWebKit/537.36 (KHTML, like Gecko) Chrome/87.0.4280.88 Safari/537.36" etag="D0rdMrPgedBWaDHFdUZS" version="14.1.3" type="github">
  <diagram id="_KGdLCxIYCKf-Vqc58f2" name="Page-1">
    <mxGraphModel dx="2084" dy="2012" grid="1" gridSize="10" guides="1" tooltips="1" connect="1" arrows="1" fold="1" page="1" pageScale="1" pageWidth="827" pageHeight="1169" math="0" shadow="0">
      <root>
        <mxCell id="0" />
        <mxCell id="1" parent="0" />
        <mxCell id="E1HCFxRwRJt3zf8EPV6W-1" value="&lt;font style=&quot;font-size: 18px&quot;&gt;视频安审流&lt;/font&gt;" style="rounded=0;whiteSpace=wrap;html=1;" parent="1" vertex="1">
          <mxGeometry x="80" y="110" width="220" height="70" as="geometry" />
        </mxCell>
        <mxCell id="E1HCFxRwRJt3zf8EPV6W-45" value="" style="edgeStyle=orthogonalEdgeStyle;rounded=0;orthogonalLoop=1;jettySize=auto;html=1;entryX=0.991;entryY=0.554;entryDx=0;entryDy=0;entryPerimeter=0;exitX=0.5;exitY=1;exitDx=0;exitDy=0;" parent="1" source="E1HCFxRwRJt3zf8EPV6W-2" target="E1HCFxRwRJt3zf8EPV6W-14" edge="1">
          <mxGeometry relative="1" as="geometry">
            <mxPoint x="767" y="640" as="targetPoint" />
            <Array as="points">
              <mxPoint x="770" y="622" />
            </Array>
          </mxGeometry>
        </mxCell>
        <mxCell id="E1HCFxRwRJt3zf8EPV6W-46" value="update dynamic" style="edgeLabel;html=1;align=center;verticalAlign=middle;resizable=0;points=[];" parent="E1HCFxRwRJt3zf8EPV6W-45" vertex="1" connectable="0">
          <mxGeometry x="-0.3092" y="1" relative="1" as="geometry">
            <mxPoint as="offset" />
          </mxGeometry>
        </mxCell>
        <mxCell id="E1HCFxRwRJt3zf8EPV6W-2" value="&lt;font style=&quot;font-size: 18px&quot;&gt;视频行为流&lt;/font&gt;" style="rounded=0;whiteSpace=wrap;html=1;" parent="1" vertex="1">
          <mxGeometry x="660" y="110" width="220" height="70" as="geometry" />
        </mxCell>
        <mxCell id="E1HCFxRwRJt3zf8EPV6W-3" value="" style="endArrow=classic;html=1;exitX=0.5;exitY=1;exitDx=0;exitDy=0;entryX=0.5;entryY=0;entryDx=0;entryDy=0;" parent="1" source="E1HCFxRwRJt3zf8EPV6W-1" target="E1HCFxRwRJt3zf8EPV6W-15" edge="1">
          <mxGeometry width="50" height="50" relative="1" as="geometry">
            <mxPoint x="390" y="450" as="sourcePoint" />
            <mxPoint y="330" as="targetPoint" />
          </mxGeometry>
        </mxCell>
        <mxCell id="E1HCFxRwRJt3zf8EPV6W-4" value="event1" style="edgeLabel;html=1;align=center;verticalAlign=middle;resizable=0;points=[];" parent="E1HCFxRwRJt3zf8EPV6W-3" vertex="1" connectable="0">
          <mxGeometry x="-0.1446" y="2" relative="1" as="geometry">
            <mxPoint y="-1" as="offset" />
          </mxGeometry>
        </mxCell>
        <mxCell id="E1HCFxRwRJt3zf8EPV6W-5" value="" style="endArrow=classic;html=1;exitX=0.5;exitY=1;exitDx=0;exitDy=0;entryX=0.5;entryY=0;entryDx=0;entryDy=0;" parent="1" source="E1HCFxRwRJt3zf8EPV6W-1" target="E1HCFxRwRJt3zf8EPV6W-24" edge="1">
          <mxGeometry width="50" height="50" relative="1" as="geometry">
            <mxPoint x="160" y="260" as="sourcePoint" />
            <mxPoint x="110" y="330" as="targetPoint" />
          </mxGeometry>
        </mxCell>
        <mxCell id="E1HCFxRwRJt3zf8EPV6W-6" value="event2" style="edgeLabel;html=1;align=center;verticalAlign=middle;resizable=0;points=[];" parent="E1HCFxRwRJt3zf8EPV6W-5" vertex="1" connectable="0">
          <mxGeometry x="-0.1446" y="2" relative="1" as="geometry">
            <mxPoint y="-1" as="offset" />
          </mxGeometry>
        </mxCell>
        <mxCell id="E1HCFxRwRJt3zf8EPV6W-7" value="" style="endArrow=classic;html=1;exitX=0.5;exitY=1;exitDx=0;exitDy=0;entryX=0.5;entryY=0;entryDx=0;entryDy=0;" parent="1" source="E1HCFxRwRJt3zf8EPV6W-1" target="E1HCFxRwRJt3zf8EPV6W-33" edge="1">
          <mxGeometry width="50" height="50" relative="1" as="geometry">
            <mxPoint x="160" y="260" as="sourcePoint" />
            <mxPoint x="230" y="330" as="targetPoint" />
          </mxGeometry>
        </mxCell>
        <mxCell id="E1HCFxRwRJt3zf8EPV6W-8" value="event3" style="edgeLabel;html=1;align=center;verticalAlign=middle;resizable=0;points=[];" parent="E1HCFxRwRJt3zf8EPV6W-7" vertex="1" connectable="0">
          <mxGeometry x="-0.1446" y="2" relative="1" as="geometry">
            <mxPoint y="-1" as="offset" />
          </mxGeometry>
        </mxCell>
        <mxCell id="E1HCFxRwRJt3zf8EPV6W-9" value="" style="endArrow=classic;html=1;exitX=0.5;exitY=1;exitDx=0;exitDy=0;entryX=0.5;entryY=0;entryDx=0;entryDy=0;" parent="1" source="E1HCFxRwRJt3zf8EPV6W-1" target="E1HCFxRwRJt3zf8EPV6W-36" edge="1">
          <mxGeometry width="50" height="50" relative="1" as="geometry">
            <mxPoint x="160" y="260" as="sourcePoint" />
            <mxPoint x="560" y="320" as="targetPoint" />
          </mxGeometry>
        </mxCell>
        <mxCell id="E1HCFxRwRJt3zf8EPV6W-10" value="event4" style="edgeLabel;html=1;align=center;verticalAlign=middle;resizable=0;points=[];" parent="E1HCFxRwRJt3zf8EPV6W-9" vertex="1" connectable="0">
          <mxGeometry x="-0.1446" y="2" relative="1" as="geometry">
            <mxPoint y="-1" as="offset" />
          </mxGeometry>
        </mxCell>
        <mxCell id="E1HCFxRwRJt3zf8EPV6W-11" value="&lt;font style=&quot;font-size: 14px&quot;&gt;event1:&amp;nbsp; ^(audit_state=7 &amp;amp;&amp;amp; audit_result=4) =&amp;gt; (audit_state=7 &amp;amp;&amp;amp; audit_result=4)&lt;br&gt;event2:&amp;nbsp;&lt;span style=&quot;color: rgb(23 , 43 , 77) ; text-align: left ; background-color: rgb(246 , 248 , 250)&quot;&gt;state &amp;amp; 0x01 = 0 =&amp;gt; state &amp;amp; 0x01 = 1 ||&amp;nbsp;&lt;/span&gt;(audit_state=7 &amp;amp;&amp;amp; audit_result=4) =&amp;gt; ^(audit_state=7 &amp;amp;&amp;amp; audit_result=4)&lt;br&gt;event3 :&amp;nbsp;&lt;span style=&quot;background-color: rgb(255 , 255 , 255) ; color: rgb(23 , 43 , 77) ; font-family: , , &amp;#34;segoe ui&amp;#34; , &amp;#34;roboto&amp;#34; , &amp;#34;oxygen&amp;#34; , &amp;#34;ubuntu&amp;#34; , &amp;#34;fira sans&amp;#34; , &amp;#34;droid sans&amp;#34; , &amp;#34;helvetica neue&amp;#34; , sans-serif ; text-align: left&quot;&gt;^(state &amp;amp; 0x02 = 1 || state &amp;amp; 0x20 = 1 || state &amp;amp; 0x40 = 1) =&amp;gt;&amp;nbsp;&lt;/span&gt;&lt;span style=&quot;background-color: rgb(255 , 255 , 255) ; color: rgb(23 , 43 , 77) ; font-family: , , &amp;#34;segoe ui&amp;#34; , &amp;#34;roboto&amp;#34; , &amp;#34;oxygen&amp;#34; , &amp;#34;ubuntu&amp;#34; , &amp;#34;fira sans&amp;#34; , &amp;#34;droid sans&amp;#34; , &amp;#34;helvetica neue&amp;#34; , sans-serif ; text-align: left&quot;&gt;(state &amp;amp; 0x02 = 1 || state &amp;amp; 0x20 = 1 || state &amp;amp; 0x40 = 1)&lt;br&gt;&lt;/span&gt;&lt;span style=&quot;background-color: rgb(255 , 255 , 255) ; color: rgb(23 , 43 , 77) ; font-family: , , &amp;#34;segoe ui&amp;#34; , &amp;#34;roboto&amp;#34; , &amp;#34;oxygen&amp;#34; , &amp;#34;ubuntu&amp;#34; , &amp;#34;fira sans&amp;#34; , &amp;#34;droid sans&amp;#34; , &amp;#34;helvetica neue&amp;#34; , sans-serif ; text-align: left&quot;&gt;event4: meta更新触发，具体字段包含(&lt;/span&gt;&lt;span style=&quot;color: rgb(23 , 43 , 77) ; font-family: , , &amp;#34;segoe ui&amp;#34; , &amp;#34;roboto&amp;#34; , &amp;#34;oxygen&amp;#34; , &amp;#34;ubuntu&amp;#34; , &amp;#34;fira sans&amp;#34; , &amp;#34;droid sans&amp;#34; , &amp;#34;helvetica neue&amp;#34; , sans-serif ; background-color: rgb(255 , 255 , 255)&quot;&gt;desc, topic, cat1, cat2, manual_tags&lt;/span&gt;&lt;span style=&quot;background-color: rgb(255 , 255 , 255) ; color: rgb(23 , 43 , 77) ; font-family: , , &amp;#34;segoe ui&amp;#34; , &amp;#34;roboto&amp;#34; , &amp;#34;oxygen&amp;#34; , &amp;#34;ubuntu&amp;#34; , &amp;#34;fira sans&amp;#34; , &amp;#34;droid sans&amp;#34; , &amp;#34;helvetica neue&amp;#34; , sans-serif ; text-align: left&quot;&gt;等) before.desc!=after.desc ....&lt;br&gt;&lt;/span&gt;&lt;span style=&quot;background-color: rgb(255 , 255 , 255) ; color: rgb(23 , 43 , 77) ; text-align: left&quot;&gt;event5: 推荐池更新，&lt;/span&gt;&lt;span style=&quot;color: rgb(23 , 43 , 77) ; font-family: , , &amp;#34;segoe ui&amp;#34; , &amp;#34;roboto&amp;#34; , &amp;#34;oxygen&amp;#34; , &amp;#34;ubuntu&amp;#34; , &amp;#34;fira sans&amp;#34; , &amp;#34;droid sans&amp;#34; , &amp;#34;helvetica neue&amp;#34; , sans-serif ; text-align: left ; background-color: rgb(246 , 248 , 250)&quot;&gt;(audit_stage=7 &amp;amp;&amp;amp; audit_result=4) =&amp;gt; ^(audit_stage=7 &amp;amp;&amp;amp; audit_result=4) update is_rec字段(0|1)&lt;/span&gt;&lt;span style=&quot;background-color: rgb(255 , 255 , 255) ; color: rgb(23 , 43 , 77) ; font-family: , , &amp;#34;segoe ui&amp;#34; , &amp;#34;roboto&amp;#34; , &amp;#34;oxygen&amp;#34; , &amp;#34;ubuntu&amp;#34; , &amp;#34;fira sans&amp;#34; , &amp;#34;droid sans&amp;#34; , &amp;#34;helvetica neue&amp;#34; , sans-serif ; text-align: left&quot;&gt;&lt;br&gt;filter0:&amp;nbsp;&lt;/span&gt;&lt;span style=&quot;background-color: rgb(255 , 255 , 255) ; color: rgb(23 , 43 , 77) ; font-family: , , &amp;#34;segoe ui&amp;#34; , &amp;#34;roboto&amp;#34; , &amp;#34;oxygen&amp;#34; , &amp;#34;ubuntu&amp;#34; , &amp;#34;fira sans&amp;#34; , &amp;#34;droid sans&amp;#34; , &amp;#34;helvetica neue&amp;#34; , sans-serif ; text-align: left&quot;&gt;feed.video_source&amp;nbsp;!= &quot;cms_16911&quot;&amp;nbsp;// 非广告&amp;nbsp;&lt;/span&gt;&lt;span style=&quot;background-color: rgb(255 , 255 , 255) ; color: rgb(23 , 43 , 77) ; font-family: , , &amp;#34;segoe ui&amp;#34; , &amp;#34;roboto&amp;#34; , &amp;#34;oxygen&amp;#34; , &amp;#34;ubuntu&amp;#34; , &amp;#34;fira sans&amp;#34; , &amp;#34;droid sans&amp;#34; , &amp;#34;helvetica neue&amp;#34; , sans-serif ; text-align: left&quot;&gt;feed.&lt;/span&gt;&lt;span style=&quot;font-family: , , &amp;#34;segoe ui&amp;#34; , &amp;#34;roboto&amp;#34; , &amp;#34;oxygen&amp;#34; , &amp;#34;ubuntu&amp;#34; , &amp;#34;fira sans&amp;#34; , &amp;#34;droid sans&amp;#34; , &amp;#34;helvetica neue&amp;#34; , sans-serif ; text-align: left ; margin: 0px ; color: rgb(51 , 51 , 51)&quot;&gt;is_master_key = 1&amp;nbsp;// 指纹主key&lt;/span&gt;&lt;span style=&quot;background-color: rgb(255 , 255 , 255) ; color: rgb(23 , 43 , 77) ; font-family: , , &amp;#34;segoe ui&amp;#34; , &amp;#34;roboto&amp;#34; , &amp;#34;oxygen&amp;#34; , &amp;#34;ubuntu&amp;#34; , &amp;#34;fira sans&amp;#34; , &amp;#34;droid sans&amp;#34; , &amp;#34;helvetica neue&amp;#34; , sans-serif ; text-align: left&quot;&gt;&lt;br&gt;&lt;/span&gt;&lt;/font&gt;" style="text;html=1;strokeColor=none;fillColor=none;align=center;verticalAlign=middle;whiteSpace=wrap;rounded=0;" parent="1" vertex="1">
          <mxGeometry x="-260" y="-10" width="850" height="120" as="geometry" />
        </mxCell>
        <mxCell id="E1HCFxRwRJt3zf8EPV6W-12" value="XSEARCH(周)" style="shape=cylinder3;whiteSpace=wrap;html=1;boundedLbl=1;backgroundOutline=1;size=15;" parent="1" vertex="1">
          <mxGeometry x="-80" y="550" width="110" height="130" as="geometry" />
        </mxCell>
        <mxCell id="E1HCFxRwRJt3zf8EPV6W-13" value="ES" style="shape=cylinder3;whiteSpace=wrap;html=1;boundedLbl=1;backgroundOutline=1;size=15;" parent="1" vertex="1">
          <mxGeometry x="260" y="550" width="120" height="130" as="geometry" />
        </mxCell>
        <mxCell id="E1HCFxRwRJt3zf8EPV6W-14" value="KV" style="shape=cylinder3;whiteSpace=wrap;html=1;boundedLbl=1;backgroundOutline=1;size=15;" parent="1" vertex="1">
          <mxGeometry x="450" y="550" width="110" height="130" as="geometry" />
        </mxCell>
        <mxCell id="E1HCFxRwRJt3zf8EPV6W-57" value="" style="edgeStyle=orthogonalEdgeStyle;rounded=0;orthogonalLoop=1;jettySize=auto;html=1;" parent="1" source="E1HCFxRwRJt3zf8EPV6W-15" target="E1HCFxRwRJt3zf8EPV6W-56" edge="1">
          <mxGeometry relative="1" as="geometry" />
        </mxCell>
        <mxCell id="E1HCFxRwRJt3zf8EPV6W-15" value="insert" style="rounded=0;whiteSpace=wrap;html=1;fillColor=#f8cecc;strokeColor=#b85450;" parent="1" vertex="1">
          <mxGeometry x="-120" y="270" width="120" height="60" as="geometry" />
        </mxCell>
        <mxCell id="E1HCFxRwRJt3zf8EPV6W-23" value="XSEARCH(月)" style="shape=cylinder3;whiteSpace=wrap;html=1;boundedLbl=1;backgroundOutline=1;size=15;" parent="1" vertex="1">
          <mxGeometry x="80" y="550" width="110" height="130" as="geometry" />
        </mxCell>
        <mxCell id="E1HCFxRwRJt3zf8EPV6W-24" value="delete" style="rounded=0;whiteSpace=wrap;html=1;fillColor=#dae8fc;strokeColor=#6c8ebf;" parent="1" vertex="1">
          <mxGeometry x="50" y="270" width="120" height="60" as="geometry" />
        </mxCell>
        <mxCell id="E1HCFxRwRJt3zf8EPV6W-33" value="update state/is_block" style="rounded=0;whiteSpace=wrap;html=1;fillColor=#d5e8d4;strokeColor=#82b366;" parent="1" vertex="1">
          <mxGeometry x="240" y="270" width="120" height="60" as="geometry" />
        </mxCell>
        <mxCell id="E1HCFxRwRJt3zf8EPV6W-36" value="update meta" style="rounded=0;whiteSpace=wrap;html=1;fillColor=#ffe6cc;strokeColor=#d79b00;" parent="1" vertex="1">
          <mxGeometry x="420" y="270" width="120" height="60" as="geometry" />
        </mxCell>
        <mxCell id="E1HCFxRwRJt3zf8EPV6W-42" value="" style="shape=flexArrow;endArrow=classic;html=1;" parent="1" edge="1">
          <mxGeometry width="50" height="50" relative="1" as="geometry">
            <mxPoint x="210" y="420" as="sourcePoint" />
            <mxPoint x="210" y="490" as="targetPoint" />
          </mxGeometry>
        </mxCell>
        <mxCell id="E1HCFxRwRJt3zf8EPV6W-43" value="doAction" style="edgeLabel;html=1;align=center;verticalAlign=middle;resizable=0;points=[];" parent="E1HCFxRwRJt3zf8EPV6W-42" vertex="1" connectable="0">
          <mxGeometry x="-0.2" y="-2" relative="1" as="geometry">
            <mxPoint as="offset" />
          </mxGeometry>
        </mxCell>
        <mxCell id="E1HCFxRwRJt3zf8EPV6W-50" value="" style="edgeStyle=orthogonalEdgeStyle;rounded=0;orthogonalLoop=1;jettySize=auto;html=1;entryX=0.5;entryY=1;entryDx=0;entryDy=0;entryPerimeter=0;exitX=0.5;exitY=1;exitDx=0;exitDy=0;" parent="1" source="E1HCFxRwRJt3zf8EPV6W-2" target="E1HCFxRwRJt3zf8EPV6W-13" edge="1">
          <mxGeometry relative="1" as="geometry">
            <mxPoint x="780" y="190" as="sourcePoint" />
            <mxPoint x="569.0100000000002" y="632.02" as="targetPoint" />
            <Array as="points">
              <mxPoint x="770" y="770" />
              <mxPoint x="320" y="770" />
            </Array>
          </mxGeometry>
        </mxCell>
        <mxCell id="E1HCFxRwRJt3zf8EPV6W-52" value="update dynamic level" style="edgeLabel;html=1;align=center;verticalAlign=middle;resizable=0;points=[];" parent="E1HCFxRwRJt3zf8EPV6W-50" vertex="1" connectable="0">
          <mxGeometry x="0.3876" y="-1" relative="1" as="geometry">
            <mxPoint as="offset" />
          </mxGeometry>
        </mxCell>
        <mxCell id="E1HCFxRwRJt3zf8EPV6W-53" value="" style="edgeStyle=orthogonalEdgeStyle;rounded=0;orthogonalLoop=1;jettySize=auto;html=1;entryX=0.5;entryY=1;entryDx=0;entryDy=0;entryPerimeter=0;exitX=0.5;exitY=1;exitDx=0;exitDy=0;" parent="1" source="E1HCFxRwRJt3zf8EPV6W-2" target="E1HCFxRwRJt3zf8EPV6W-23" edge="1">
          <mxGeometry relative="1" as="geometry">
            <mxPoint x="780" y="190" as="sourcePoint" />
            <mxPoint x="330" y="690" as="targetPoint" />
            <Array as="points">
              <mxPoint x="770" y="770" />
              <mxPoint x="135" y="770" />
            </Array>
          </mxGeometry>
        </mxCell>
        <mxCell id="E1HCFxRwRJt3zf8EPV6W-55" value="" style="edgeStyle=orthogonalEdgeStyle;rounded=0;orthogonalLoop=1;jettySize=auto;html=1;entryX=0.5;entryY=1;entryDx=0;entryDy=0;entryPerimeter=0;exitX=0.5;exitY=1;exitDx=0;exitDy=0;" parent="1" source="E1HCFxRwRJt3zf8EPV6W-2" target="E1HCFxRwRJt3zf8EPV6W-12" edge="1">
          <mxGeometry relative="1" as="geometry">
            <mxPoint x="790" y="200" as="sourcePoint" />
            <mxPoint x="145" y="690" as="targetPoint" />
            <Array as="points">
              <mxPoint x="770" y="770" />
              <mxPoint x="-25" y="770" />
            </Array>
          </mxGeometry>
        </mxCell>
        <mxCell id="E1HCFxRwRJt3zf8EPV6W-56" value="filter0" style="rounded=0;whiteSpace=wrap;html=1;" parent="1" vertex="1">
          <mxGeometry x="-120" y="370" width="120" height="60" as="geometry" />
        </mxCell>
        <mxCell id="O8VFlYrJ1XJGqXYemuZM-1" value="" style="endArrow=classic;html=1;exitX=0.5;exitY=1;exitDx=0;exitDy=0;entryX=0.5;entryY=0;entryDx=0;entryDy=0;" edge="1" parent="1" source="E1HCFxRwRJt3zf8EPV6W-1" target="O8VFlYrJ1XJGqXYemuZM-3">
          <mxGeometry width="50" height="50" relative="1" as="geometry">
            <mxPoint x="200" y="190" as="sourcePoint" />
            <mxPoint x="630" y="270" as="targetPoint" />
          </mxGeometry>
        </mxCell>
        <mxCell id="O8VFlYrJ1XJGqXYemuZM-2" value="event4" style="edgeLabel;html=1;align=center;verticalAlign=middle;resizable=0;points=[];" vertex="1" connectable="0" parent="O8VFlYrJ1XJGqXYemuZM-1">
          <mxGeometry x="-0.1446" y="2" relative="1" as="geometry">
            <mxPoint y="-1" as="offset" />
          </mxGeometry>
        </mxCell>
        <mxCell id="O8VFlYrJ1XJGqXYemuZM-3" value="update is_rec" style="rounded=0;whiteSpace=wrap;html=1;fillColor=#ffe6cc;strokeColor=#d79b00;" vertex="1" parent="1">
          <mxGeometry x="590" y="270" width="120" height="60" as="geometry" />
        </mxCell>
      </root>
    </mxGraphModel>
  </diagram>
</mxfile>
